# xmcd CD database file
# Copyright (C) 1996 Ti Kan
#
# Track frame offsets:
# 	150
# 	17947
# 	32927
# 	49460
# 	67597
# 	83355
# 	99112
# 	116170
# 	137897
# 	153795
# 	170130
#
# Disc length: 2412 seconds
#
# Revision: 1
# Processed by: cddbd v1.4b41PL1 Copyright (c) Steve Scherf et al.
# Submitted via: DiscPlay 3.4.1
#
DISCID=88096a0b
DTITLE=Christine Albert - underneath the lone star sky
DYEAR=1900
DGENRE=
TTITLE0=great day in the mornin'
TTITLE1=take it to the heart
TTITLE2=a train runnin'
TTITLE3=cool river
TTITLE4=get you alone
TTITLE5=black denim trousers
TTITLE6=ready for a change
TTITLE7=everytime
TTITLE8=new mexico
TTITLE9=are we there yet mama
TTITLE10=son shine
EXTD=
EXTT0=
EXTT1=
EXTT2=
EXTT3=
EXTT4=
EXTT5=
EXTT6=
EXTT7=
EXTT8=
EXTT9=
EXTT10=
PLAYORDER=
